<?xml version="1.0" standalone="no"?><!DOCTYPE svg PUBLIC "-//W3C//DTD SVG 1.1//EN" "http://www.w3.org/Graphics/SVG/1.1/DTD/svg11.dtd"><svg t="1679921222728" class="icon" viewBox="0 0 1024 1024" version="1.1" xmlns="http://www.w3.org/2000/svg" p-id="1516" xmlns:xlink="http://www.w3.org/1999/xlink" width="300" height="300"><path d="M652 268.7c-17.7 0-32-14.3-32-32 0-59.3-48.3-107.6-107.7-107.6-59.3 0-107.6 48.3-107.6 107.6 0 17.7-14.3 32-32 32s-32-14.3-32-32c0-94.6 77-171.6 171.6-171.6 94.7 0 171.7 77 171.7 171.6 0 17.7-14.3 32-32 32z" p-id="1517" fill="#515151"></path><path d="M898.1 289H129.7c-17.7 0-32-14.3-32-32s14.3-32 32-32h768.4c17.7 0 32 14.3 32 32s-14.3 32-32 32z" p-id="1518" fill="#515151"></path><path d="M702.4 961.3H321.5c-70.9 0-128.5-57.6-128.5-128.5V283.5c0-17.7 14.3-32 32-32s32 14.3 32 32v549.3c0 35.6 28.9 64.5 64.5 64.5h380.9c35.6 0 64.5-28.9 64.5-64.5V273.5c0-17.7 14.3-32 32-32s32 14.3 32 32v559.3c0 70.9-57.6 128.5-128.5 128.5z" p-id="1519" fill="#515151"></path><path d="M372.1 757.3c-17.7 0-32-14.3-32-32V405.2c0-17.7 14.3-32 32-32s32 14.3 32 32v320.1c0 17.7-14.3 32-32 32zM510.9 757.3c-17.7 0-32-14.3-32-32V405.2c0-17.7 14.3-32 32-32s32 14.3 32 32v320.1c0 17.7-14.3 32-32 32zM649.7 757.3c-17.7 0-32-14.3-32-32V405.2c0-17.7 14.3-32 32-32s32 14.3 32 32v320.1c0 17.7-14.3 32-32 32z" p-id="1520" fill="#515151"></path></svg>