<?xml version="1.0" standalone="no"?><!DOCTYPE svg PUBLIC "-//W3C//DTD SVG 1.1//EN" "http://www.w3.org/Graphics/SVG/1.1/DTD/svg11.dtd"><svg t="1680082850831" class="icon" viewBox="0 0 1024 1024" version="1.1" xmlns="http://www.w3.org/2000/svg" p-id="1457" xmlns:xlink="http://www.w3.org/1999/xlink" width="300" height="300"><path d="M347.9102592 557.46644907c-0.56868587 0.7258656-1.13737067 1.48447573-1.3906048 2.40135893l-43.84444053 160.7469408c-2.56072107 9.3576576 0.0633088 19.4411808 6.98686186 26.5524768 5.18475093 5.0581344 12.01225067 7.8404352 19.2829088 7.8404352 2.40245013 0 4.80490027-0.28488853 7.175696-0.9179744l159.60629547-43.52898987c0.25432533 0 0.38094293 0.22157973 0.56977707 0.22157974 1.83267307 0 3.6358752-0.663648 4.9959168-2.05643627l426.7879968-426.724688c12.67589867-12.69117973 19.63110613-29.98314453 19.63110613-48.79233067 0-21.32188053-9.04111467-42.6273888-24.87916587-58.41850453l-40.305712-40.36792853c-15.80421333-15.8380512-37.14355947-24.89444693-58.45015893-24.89444694-18.80700373 0-36.09896853 6.95520747-48.808704 19.6147328L348.5422528 555.98088213C348.10127573 556.39020373 348.22680107 556.9916352 347.9102592 557.46644907M886.31994987 240.21096533l-42.3916192 42.361056-68.72360747-69.81513386 41.7923712-41.79127894c6.60591893-6.63757333 19.40734293-5.67266347 26.99563627 1.94400854l40.33409173 40.36901973c4.20674347 4.20456 6.6081024 9.79863467 6.6081024 15.33049173C890.9054528 233.1466048 889.2910848 237.25620267 886.31994987 240.21096533M423.8106528 564.1684224l307.96004373-307.97750827 68.75635307 69.86206934L493.13569173 633.42796907 423.8106528 564.1684224zM367.69963627 689.0347008l22.2540448-81.68548587 59.36704106 59.36813227L367.69963627 689.0347008z" fill="#515151" p-id="1458"></path><path d="M913.34942293 409.31790827c-16.15459413 0-29.4002688 13.1343392-29.4613952 29.50942186l0 397.848352c0 20.86344-16.94485867 37.80720747-37.84104426 37.80720747L173.03568853 874.4828896c-20.86344 0-37.87160747-16.94267627-37.87160746-37.80720747L135.16408107 187.3090368c0-20.88090453 17.00816747-37.83995307 37.87160746-37.83995307l433.45831574 0c16.24737387 0 29.4319232-13.1965568 29.4319232-29.44720533 0-16.21571947-13.1845504-29.4297408-29.4319232-29.4297408L168.5473312 90.5921376c-50.8629568 0-92.259104 41.3644928-92.259104 92.259104L76.2882272 841.16513067c0 50.8946112 41.3961472 92.24273067 92.259104 92.24273066l681.9563552 0c50.89679467 0 92.27656853-41.34811947 92.27656853-92.24273066L942.78025493 438.6374048C942.71367253 422.45224853 929.50292587 409.31790827 913.34942293 409.31790827" fill="#515151" p-id="1459"></path></svg>